# xmcd
# Copyright (C) 1995-1998 Ti Kan
#
# Track frame offsets:
#       150
#       12876
#       28515
#       43679
#       55050
#       64721
#       79589
#
# Disc length: 1248 seconds
#
# Revision: 0
# Processed by: cddbd v1.5.2PL0 Copyright (c) Steve Scherf et al.
# Submitted via: CD-Import v1.0
#
DISCID=4b04de07
DTITLE=The Come Ons - Are Go
DYEAR=1900
DGENRE=
TTITLE0=Desperately
TTITLE1=Home
TTITLE2=Mr.brown
TTITLE3=Undone
TTITLE4=No Blue Today
TTITLE5=Wasabi
TTITLE6=Back In Love
EXTD=
EXTT0=
EXTT1=
EXTT2=
EXTT3=
EXTT4=
EXTT5=
EXTT6=
PLAYORDER=
